<!-- Modern Geometric Background for Analytics -->
<svg width="800" height="600" xmlns="http://www.w3.org/2000/svg">
  <defs>
    <linearGradient id="analytics-bg" x1="0%" y1="0%" x2="100%" y2="100%">
      <stop offset="0%" style="stop-color:#3b82f6;stop-opacity:0.1" />
      <stop offset="50%" style="stop-color:#8b5cf6;stop-opacity:0.05" />
      <stop offset="100%" style="stop-color:#06b6d4;stop-opacity:0.1" />
    </linearGradient>
    
    <pattern id="chart-grid" x="0" y="0" width="40" height="40" patternUnits="userSpaceOnUse">
      <path d="M 40 0 L 0 0 0 40" fill="none" stroke="currentColor" stroke-width="0.5" opacity="0.1"/>
    </pattern>
  </defs>
  
  <rect width="100%" height="100%" fill="url(#analytics-bg)"/>
  <rect width="100%" height="100%" fill="url(#chart-grid)"/>
  
  <!-- Floating chart elements -->
  <g opacity="0.15">
    <!-- Bar chart illustration -->
    <rect x="100" y="450" width="20" height="100" fill="#3b82f6" rx="2"/>
    <rect x="130" y="400" width="20" height="150" fill="#8b5cf6" rx="2"/>
    <rect x="160" y="350" width="20" height="200" fill="#06b6d4" rx="2"/>
    <rect x="190" y="420" width="20" height="130" fill="#10b981" rx="2"/>
    
    <!-- Pie chart illustration -->
    <circle cx="600" cy="150" r="60" fill="none" stroke="#3b82f6" stroke-width="12" stroke-dasharray="120 60" stroke-linecap="round" transform="rotate(-90 600 150)"/>
    <circle cx="600" cy="150" r="60" fill="none" stroke="#8b5cf6" stroke-width="12" stroke-dasharray="60 120" stroke-dashoffset="-120" stroke-linecap="round" transform="rotate(-90 600 150)"/>
    
    <!-- Trend line -->
    <path d="M 300 500 Q 400 450 500 480 T 700 420" fill="none" stroke="#10b981" stroke-width="3" opacity="0.6"/>
    <circle cx="300" cy="500" r="4" fill="#10b981"/>
    <circle cx="500" cy="480" r="4" fill="#10b981"/>
    <circle cx="700" cy="420" r="4" fill="#10b981"/>
  </g>
</svg>